<svg width="508" height="61" viewBox="0 0 508 61" fill="none" xmlns="http://www.w3.org/2000/svg">
<g opacity="0.9" clip-path="url(#clip0)">
<path d="M0.0953449 30.2472C0.0953449 21.7188 0.19123 13.1903 -0.000540385 4.66191C-0.0964257 1.45121 0.670657 0.447861 3.83487 0.447861C15.6288 0.64853 27.4226 0.447861 39.2165 0.548195C52.2569 0.748864 60.8866 14.9964 55.3253 27.3375C54.2705 29.7455 54.2705 31.2505 55.3253 33.6586C60.7907 45.6987 52.4487 59.6452 39.7918 59.8459C27.7103 60.0465 15.5329 59.8458 3.45133 59.9462C0.670656 59.9462 -0.000540388 59.0432 0.0953449 56.2338C0.19123 47.605 0.0953449 38.8759 0.0953449 30.2472ZM27.998 37.6719C24.5461 37.6719 20.9983 37.7723 17.5465 37.6719C14.8617 37.5716 14.6699 39.0766 14.9576 41.0833C15.1493 42.789 13.9028 45.498 17.1629 45.498C24.4502 45.498 31.7375 45.5984 39.1206 45.3977C41.4219 45.3977 43.1478 43.7923 42.8602 41.1836C42.6684 38.6753 40.9425 37.5716 38.5453 37.6719C34.9976 37.7723 31.4498 37.6719 27.998 37.6719ZM28.1897 22.8224C31.3539 22.8224 34.5182 22.8224 37.7783 22.8224C40.1754 22.8224 42.7643 22.6218 42.7643 19.6117C42.7643 16.8024 40.3672 16.1 37.8741 16.1C31.3539 16.1 24.8337 16.2004 18.3135 16.1C15.5329 15.9997 14.8617 17.003 14.7658 19.8124C14.6699 22.8224 16.0123 23.0231 18.2177 22.9228C21.5736 22.7221 24.9296 22.8224 28.1897 22.8224Z" fill="#ED182D"/>
<path d="M221.974 0.548195C229.837 0.548195 237.604 0.64853 245.466 0.447861C247.959 0.447861 248.63 1.1502 248.726 3.7589C249.11 15.799 249.206 15.799 237.508 15.799C229.549 15.799 221.495 15.8994 213.536 15.799C211.043 15.799 209.797 16.2004 209.893 19.3107C209.893 22.1201 210.66 23.0231 213.44 22.9228C222.837 22.7221 232.33 22.9228 241.727 22.8224C244.603 22.7221 245.562 23.6251 245.562 26.7355C245.562 37.4713 245.754 37.4713 235.494 37.4713C228.494 37.4713 221.399 37.3709 214.399 37.5716C212.769 37.5716 209.989 36.0666 210.085 40.08C210.085 43.692 211.427 45.2974 214.879 45.2974C222.837 45.197 230.892 45.2974 238.85 45.2974C240.001 45.2974 241.055 45.2974 242.206 45.2974C252.466 45.2974 252.37 45.2974 252.178 56.1335C252.178 58.8425 251.603 59.9462 248.726 59.8459C236.549 59.6452 224.467 59.9462 212.29 59.7455C202.989 59.5448 195.606 51.7188 195.51 42.0867C195.318 29.3442 195.51 16.702 195.414 3.95957C195.414 0.849199 196.565 0.447861 199.058 0.548195C206.633 0.64853 214.303 0.548195 221.974 0.548195Z" fill="#ED182D"/>
<path d="M367.72 40.2806C370.117 42.2873 372.322 44.1937 374.528 46.1C376.446 47.8057 378.363 49.7121 377.692 52.8224C377.213 55.1301 379.034 59.0432 376.637 59.5448C373.09 60.2472 368.871 61.5515 365.515 57.5381C362.063 53.4244 358.227 49.6117 354.392 45.8994C352.378 43.993 351.132 41.0833 347.68 40.983C337.516 40.381 337.516 40.2806 337.516 51.0164C337.516 59.8458 337.516 59.8458 329.078 59.8458C322.941 59.8458 322.941 59.8458 322.941 53.1234C322.941 37.0699 323.037 21.0164 322.846 5.06324C322.75 1.1502 323.9 0.447861 327.352 0.447861C337.708 0.64853 348.063 0.548195 358.515 0.548195C368.583 0.548195 376.062 5.76558 378.747 14.7957C381.527 23.9261 378.459 32.0532 369.829 38.4746C369.446 38.7756 369.158 39.0766 367.72 40.2806ZM350.269 15.498C346.913 15.498 343.557 15.5984 340.297 15.498C338.283 15.3977 337.324 16.1 337.516 18.3074C337.612 19.8124 337.708 21.3174 337.516 22.8224C337.228 25.7321 337.995 26.9361 341.064 26.8358C347.392 26.5348 353.721 26.7355 360.145 26.7355C363.789 26.7355 365.419 24.7288 365.419 21.2171C365.515 17.7054 363.789 15.5984 360.241 15.498C356.981 15.498 353.625 15.498 350.269 15.498Z" fill="#ED182D"/>
<path d="M493.905 28.2405C493.905 20.2137 494.001 12.187 493.809 4.16022C493.713 1.45119 494.384 0.447847 497.165 0.447847C507.904 0.247178 507.904 0.146844 507.904 11.0833C507.904 25.9328 507.808 40.7823 508 55.7321C508 58.9428 507.329 60.4478 504.069 59.9462C503.014 59.7455 501.863 59.7455 500.713 59.9462C495.823 60.6485 492.563 59.6452 493.905 53.3241C494.193 52.1201 493.713 51.1167 492.754 50.2137C483.549 41.4846 474.44 32.6552 466.002 24.5281C466.002 31.9529 466.002 41.4846 466.002 51.1167C466.002 59.8458 466.002 59.8458 457.469 59.8458C451.14 59.8458 451.14 59.8458 451.14 53.2238C451.14 37.0699 451.236 20.8157 451.044 4.66189C451.044 1.35086 451.907 0.74885 455.071 0.447847C462.646 -0.354828 468.399 1.75219 473.386 8.07326C479.33 15.5983 486.234 22.3208 492.658 29.3442C493.042 28.9428 493.425 28.6418 493.905 28.2405Z" fill="#ED182D"/>
<path d="M414.033 59.9462C410.677 59.9462 407.321 59.9462 403.965 59.9462C394.184 59.7455 386.513 52.6218 385.938 42.3877C385.459 34.2606 385.555 26.0331 385.938 17.9061C386.418 8.37428 394.088 0.949537 403.293 0.648533C410.772 0.447864 418.252 0.447864 425.826 0.648533C435.223 0.849202 442.415 8.47462 442.702 18.8091C442.99 26.3341 442.99 33.8592 442.702 41.3843C442.223 52.4211 434.552 59.8458 424.1 59.9462C420.745 59.9462 417.389 59.9462 414.033 59.9462ZM400.704 30.2472C400.704 33.7589 400.8 37.2706 400.704 40.7823C400.609 43.5917 401.855 44.6953 404.444 44.595C411.156 44.595 417.868 44.595 424.484 44.595C427.169 44.595 428.511 43.1903 428.511 40.2806C428.415 33.6586 428.511 26.9362 428.511 20.3141C428.511 17.4044 427.361 15.498 424.292 15.498C417.772 15.498 411.252 15.498 404.732 15.498C401.855 15.498 400.705 17.003 400.8 19.8124C400.8 23.2238 400.704 26.7355 400.704 30.2472Z" fill="#ED182D"/>
<path d="M93.2005 59.8459C84.8585 59.8459 76.6123 59.7455 68.2703 59.9462C65.6814 59.9462 64.7226 59.3442 64.6267 56.4345C64.4349 45.498 64.2431 45.498 74.6946 45.498C85.9132 45.498 85.9132 45.498 85.9132 33.8592C85.9132 29.5449 85.7214 25.1301 86.0091 20.8158C86.2009 17.003 85.3379 15.2974 81.3107 15.6987C76.9 16.1 72.3934 15.6987 67.8868 15.799C65.3938 15.8994 64.7226 14.896 64.6267 12.3877C64.2431 0.548196 64.1473 0.548195 75.5576 0.548195C89.2692 0.548195 102.981 0.64853 116.788 0.447861C120.336 0.447861 121.774 1.04987 121.678 5.26391C121.391 15.8994 121.678 15.8994 111.323 15.8994C100.296 15.8994 100.296 15.8994 100.296 27.2372C100.296 31.5515 100.584 35.9663 100.2 40.2806C99.9125 44.294 100.967 45.9997 105.09 45.6987C109.501 45.2974 114.008 45.6987 118.514 45.5984C120.815 45.498 121.391 46.401 121.583 48.8091C122.158 60.0465 122.254 60.0465 111.419 60.0465C105.282 59.8459 99.2413 59.8459 93.2005 59.8459Z" fill="#ED182D"/>
<path d="M165.881 59.8458C159.937 59.8458 154.088 59.9461 148.143 59.8458C138.746 59.6451 131.459 52.2204 131.363 42.3876C131.267 34.5615 131.267 26.6351 131.363 18.809C131.555 8.17356 138.842 0.648476 149.102 0.648476C158.211 0.548141 167.32 0.74881 176.429 0.548141C178.826 0.548141 179.689 1.04981 179.785 3.75884C180.168 15.8993 180.264 15.8993 168.662 15.8993C162.43 15.8993 156.197 15.9996 149.964 15.8993C146.513 15.799 145.074 17.2037 145.17 20.916C145.362 27.2371 145.266 33.6585 145.17 39.9796C145.074 43.7923 146.8 45.498 150.348 45.498C156.868 45.498 163.484 45.3976 170.004 45.498C172.498 45.5983 173.456 44.6953 173.36 42.0866C173.169 38.3742 173.456 34.7622 173.265 31.0498C173.169 28.4411 173.648 27.2371 176.621 27.1368C187.935 26.8358 187.935 26.7354 187.935 38.5749C187.935 44.0933 187.647 49.6117 188.031 55.1301C188.319 59.3441 186.784 60.1468 183.237 59.9461C177.388 59.6451 171.635 59.8458 165.881 59.8458Z" fill="#ED182D"/>
<path d="M287.464 0.548175C295.614 0.548175 303.764 0.748844 311.915 0.447841C314.983 0.347506 315.558 1.45119 315.558 4.46122C315.558 15.197 315.654 15.197 305.49 15.197C294.368 15.197 294.368 15.197 294.368 26.7355C294.368 36.5682 294.272 46.401 294.464 56.3341C294.464 59.2438 293.696 59.9462 291.012 59.9462C279.41 60.1469 279.41 60.2472 279.41 48.207C279.41 38.8759 279.218 29.5448 279.505 20.1134C279.601 16.401 278.834 14.6953 274.903 15.0967C270.588 15.498 266.273 15.0967 261.958 15.197C259.753 15.2973 258.986 14.595 258.89 12.0866C258.315 0.44784 258.219 0.447841 269.437 0.447841C275.382 0.548175 281.423 0.548175 287.464 0.548175Z" fill="#ED182D"/>
</g>
<defs>
<clipPath id="clip0">
<rect width="508" height="60" fill="white" transform="translate(0 0.247192)"/>
</clipPath>
</defs>
</svg>
