<svg width="18" height="19" viewBox="0 0 18 19" fill="none" xmlns="http://www.w3.org/2000/svg">
<path d="M3.5 0.138184H14.5C14.6552 0.138184 14.8084 0.170749 14.9472 0.233302C15.0861 0.295855 15.2069 0.386677 15.3 0.498575L18 3.74209V17.2568C18 17.4957 17.8946 17.7249 17.7071 17.8938C17.5196 18.0628 17.2652 18.1577 17 18.1577H1C0.734784 18.1577 0.48043 18.0628 0.292893 17.8938C0.105357 17.7249 0 17.4957 0 17.2568V3.74209L2.7 0.498575C2.79315 0.386677 2.91393 0.295855 3.05279 0.233302C3.19164 0.170749 3.34475 0.138184 3.5 0.138184ZM15.5 3.74209L14 1.94014H4L2.5 3.74209H15.5ZM6 7.346H4V9.14796C4 10.3427 4.52678 11.4886 5.46447 12.3334C6.40215 13.1782 7.67392 13.6528 9 13.6528C10.3261 13.6528 11.5979 13.1782 12.5355 12.3334C13.4732 11.4886 14 10.3427 14 9.14796V7.346H12V9.14796C12 9.86482 11.6839 10.5523 11.1213 11.0592C10.5587 11.5661 9.79565 11.8509 9 11.8509C8.20435 11.8509 7.44129 11.5661 6.87868 11.0592C6.31607 10.5523 6 9.86482 6 9.14796V7.346Z" fill="#ED182D"/>
</svg>
